<svg width="54" height="45" viewBox="0 0 54 45" fill="none" xmlns="http://www.w3.org/2000/svg">
<path d="M45 44.0625H9C8.40326 44.0625 7.83097 43.865 7.40901 43.5133C6.98705 43.1617 6.75 42.6848 6.75 42.1875V2.8125C6.75 2.31522 6.98705 1.83831 7.40901 1.48667C7.83097 1.13504 8.40326 0.9375 9 0.9375H45C45.5967 0.9375 46.169 1.13504 46.591 1.48667C47.0129 1.83831 47.25 2.31522 47.25 2.8125V42.1875C47.25 42.6848 47.0129 43.1617 46.591 43.5133C46.169 43.865 45.5967 44.0625 45 44.0625ZM11.25 40.3125H42.75V4.6875H11.25V40.3125Z" fill="white"/>
<path d="M16.875 17.8127C16.4314 17.8111 15.9982 17.7003 15.6299 17.4942C15.2616 17.288 14.9747 16.9958 14.8052 16.6541C14.6357 16.3125 14.5911 15.9367 14.6772 15.574C14.7632 15.2114 14.976 14.878 15.2887 14.6158L19.7887 10.8658C20.1234 10.588 20.5545 10.4049 21.0209 10.3427C21.4873 10.2804 21.9655 10.3421 22.3875 10.5189L25.5712 11.8502L31.1962 7.95016C31.5824 7.68004 32.0662 7.52581 32.5701 7.51221C33.0739 7.49861 33.5687 7.62643 33.975 7.87516L38.475 10.6877C38.9524 10.986 39.268 11.4302 39.3524 11.9225C39.4368 12.4148 39.283 12.9148 38.925 13.3127C38.567 13.7105 38.0339 13.9735 37.4432 14.0438C36.8525 14.1141 36.2524 13.986 35.775 13.6877L32.7037 11.7658L27.315 15.5158C26.9792 15.7479 26.5696 15.8936 26.1362 15.9352C25.7027 15.9768 25.2641 15.9125 24.8737 15.7502L21.825 14.4658L18.45 17.2783C18.0291 17.6212 17.4637 17.8131 16.875 17.8127Z" fill="white"/>
<path d="M16.875 24.375C18.1176 24.375 19.125 23.5355 19.125 22.5C19.125 21.4645 18.1176 20.625 16.875 20.625C15.6324 20.625 14.625 21.4645 14.625 22.5C14.625 23.5355 15.6324 24.375 16.875 24.375Z" fill="white"/>
<path d="M16.875 30.9375C18.1176 30.9375 19.125 30.098 19.125 29.0625C19.125 28.027 18.1176 27.1875 16.875 27.1875C15.6324 27.1875 14.625 28.027 14.625 29.0625C14.625 30.098 15.6324 30.9375 16.875 30.9375Z" fill="white"/>
<path d="M16.875 37.5C18.1176 37.5 19.125 36.6605 19.125 35.625C19.125 34.5895 18.1176 33.75 16.875 33.75C15.6324 33.75 14.625 34.5895 14.625 35.625C14.625 36.6605 15.6324 37.5 16.875 37.5Z" fill="white"/>
<path d="M37.125 24.375H24.75C24.1533 24.375 23.581 24.1775 23.159 23.8258C22.7371 23.4742 22.5 22.9973 22.5 22.5C22.5 22.0027 22.7371 21.5258 23.159 21.1742C23.581 20.8225 24.1533 20.625 24.75 20.625H37.125C37.7217 20.625 38.294 20.8225 38.716 21.1742C39.1379 21.5258 39.375 22.0027 39.375 22.5C39.375 22.9973 39.1379 23.4742 38.716 23.8258C38.294 24.1775 37.7217 24.375 37.125 24.375Z" fill="white"/>
<path d="M37.125 30.9375H24.75C24.1533 30.9375 23.581 30.74 23.159 30.3883C22.7371 30.0367 22.5 29.5598 22.5 29.0625C22.5 28.5652 22.7371 28.0883 23.159 27.7367C23.581 27.385 24.1533 27.1875 24.75 27.1875H37.125C37.7217 27.1875 38.294 27.385 38.716 27.7367C39.1379 28.0883 39.375 28.5652 39.375 29.0625C39.375 29.5598 39.1379 30.0367 38.716 30.3883C38.294 30.74 37.7217 30.9375 37.125 30.9375Z" fill="white"/>
<path d="M37.125 37.5H24.75C24.1533 37.5 23.581 37.3025 23.159 36.9508C22.7371 36.5992 22.5 36.1223 22.5 35.625C22.5 35.1277 22.7371 34.6508 23.159 34.2992C23.581 33.9475 24.1533 33.75 24.75 33.75H37.125C37.7217 33.75 38.294 33.9475 38.716 34.2992C39.1379 34.6508 39.375 35.1277 39.375 35.625C39.375 36.1223 39.1379 36.5992 38.716 36.9508C38.294 37.3025 37.7217 37.5 37.125 37.5Z" fill="white"/>
</svg>
