<svg width="42" height="42" viewBox="0 0 42 42" fill="none" xmlns="http://www.w3.org/2000/svg">
<path d="M15 0L12 0.6875V2.75H15V0ZM15 2.75V5.5H12V2.75H11.982C8.205 2.7885 5.442 2.6675 3.186 3.806C2.058 4.378 1.161 5.346 0.666 6.55325C0.174 7.75775 0 9.19325 0 11V33C0 34.8068 0.174 36.2395 0.666 37.4468C1.161 38.654 2.058 39.6138 3.186 40.1857C5.445 41.327 8.208 41.2088 11.982 41.25H30.018C33.792 41.2088 36.552 41.327 38.811 40.1857C39.9798 39.5782 40.8719 38.6063 41.325 37.4468C41.82 36.2395 42 34.7243 42 33V11C42 9.1905 41.82 7.75775 41.325 6.55325C40.8708 5.39292 39.9792 4.41957 38.811 3.80875C36.552 2.66475 33.792 2.79125 30.018 2.75H30V5.5H27V2.75H15ZM27 2.75H30V0L27 0.6875V2.75ZM12.018 13.75H30C33.78 13.7885 36.261 13.915 37.359 14.4678C37.908 14.7483 38.226 15.0535 38.517 15.7685C38.811 16.4835 38.997 19.25 38.997 19.25V33C38.997 34.628 38.811 35.7638 38.517 36.4788C38.226 37.1938 37.908 37.5018 37.359 37.7795C36.261 38.335 33.777 38.4588 30 38.5H12C8.22 38.4588 5.739 38.335 4.638 37.7795C4.089 37.5018 3.771 37.1938 3.48 36.4788C3.186 35.7638 3 34.628 3 33V19.25C3 17.6192 3.186 16.4835 3.48 15.7685C3.771 15.0535 4.089 14.7483 4.638 14.4678C5.739 13.9123 8.226 13.7885 12.018 13.75Z" fill="#EBEBEB"/>
</svg>
