<svg width="50" height="46" viewBox="0 0 50 46" fill="none" xmlns="http://www.w3.org/2000/svg">
<path fill-rule="evenodd" clip-rule="evenodd" d="M10.5806 9.71541C18.4875 2.45128 31.341 2.52853 39.2962 9.84741C47.255 17.1694 47.3356 29.0017 39.4296 36.2752C31.5233 43.5488 18.6624 43.4746 10.7036 36.1525C5.98727 31.8136 4.03967 25.894 4.87598 20.2806C4.99317 19.494 5.78125 18.9439 6.63619 19.0517C7.49114 19.1595 8.08921 19.8845 7.97204 20.6711C7.26375 25.425 8.91212 30.4386 12.9133 34.1197C19.6727 40.3384 30.555 40.3738 37.2198 34.2422C43.8846 28.1106 43.8458 18.0989 37.0865 11.8803C30.3306 5.66492 19.456 5.62616 12.7903 11.7483L14.348 11.7555C15.211 11.7595 15.907 12.4064 15.9026 13.2003C15.8983 13.9942 15.1952 14.6345 14.3323 14.6305L9.02908 14.606C8.17227 14.602 7.47877 13.964 7.47446 13.1757L7.44781 8.29675C7.44346 7.50287 8.1395 6.85605 9.00244 6.85205C9.86537 6.84806 10.5684 7.48842 10.5728 8.28232L10.5806 9.71541Z" fill="white"/>
<path opacity="0.5" d="M25 13.896C25.8629 13.896 26.5625 14.5396 26.5625 15.3335V22.4047L31.3131 26.7754C31.9233 27.3368 31.9233 28.2468 31.3131 28.8082C30.7029 29.3696 29.7138 29.3696 29.1035 28.8082L24.0477 24.1571C23.6571 23.7975 23.4375 23.3101 23.4375 22.8016V15.3335C23.4375 14.5396 24.1371 13.896 25 13.896Z" fill="white"/>
</svg>
