<svg width="500" height="519" viewBox="0 0 500 519" fill="none" xmlns="http://www.w3.org/2000/svg">
<g clip-path="url(#clip0_231_323)">
<path d="M90.5103 518.357H438.713V144.321C438.713 64.7419 376.874 0 300.863 0H228.36C152.349 0 90.5103 64.7419 90.5103 144.321V518.357Z" fill="#F2F2F2"/>
<path d="M163.012 518.357H438.713V144.321C438.789 113.828 429.566 84.1061 412.387 59.4821C411.754 58.5785 411.122 57.6866 410.471 56.8046C402.161 45.3947 392.273 35.3462 381.132 26.9907C380.502 26.5111 379.87 26.04 379.229 25.5689C369.907 18.8147 359.822 13.2932 349.205 9.13018C348.575 8.88023 347.933 8.62961 347.291 8.38882C337.689 4.80078 327.735 2.34282 317.614 1.06034C316.989 0.970696 316.342 0.90069 315.698 0.830022C305.835 -0.27407 295.888 -0.27407 286.024 0.830022C285.382 0.900036 284.737 0.970701 284.103 1.061C273.984 2.34386 264.034 4.80182 254.434 8.38948C253.792 8.62962 253.15 8.88023 252.518 9.13149C242.031 13.2417 232.065 18.6806 222.841 25.3268C222.2 25.7848 221.559 26.2586 220.927 26.7297C214.682 31.3967 208.817 36.596 203.39 42.2746C199.038 46.8293 194.982 51.6844 191.251 56.8072C190.601 57.6866 189.97 58.5785 189.338 59.4808C172.158 84.1051 162.935 113.828 163.011 144.321L163.012 518.357Z" fill="#CCCCCC"/>
<path d="M185.432 258.68C177.002 258.68 170.168 251.525 170.168 242.7C170.168 233.874 177.002 226.72 185.432 226.72C193.861 226.72 200.695 233.874 200.695 242.7C200.695 251.525 193.861 258.68 185.432 258.68Z" fill="#6C63FF"/>
<path d="M0.803894 519H499.196C499.64 519 500 518.467 500 517.811C500 517.155 499.64 516.622 499.196 516.622H0.803894C0.360138 516.622 0.000152588 517.154 0.000152588 517.811C0.000152588 518.468 0.359528 519 0.803894 519Z" fill="#E6E6E6"/>
<path d="M238.854 409.991H362.871C364.505 410.001 366.075 409.331 367.237 408.13C368.4 406.929 369.06 405.294 369.073 403.584V113.774C369.06 112.064 368.4 110.429 367.237 109.228C366.075 108.027 364.505 107.358 362.872 107.367H238.854C237.221 107.358 235.651 108.027 234.489 109.228C233.327 110.429 232.667 112.064 232.654 113.774V403.584C232.667 405.294 233.327 406.929 234.489 408.13C235.652 409.331 237.221 410.001 238.854 409.991Z" fill="white"/>
<path d="M232.653 201.14H369.073V203.138H232.653V201.14Z" fill="#CCCCCC"/>
<path d="M232.176 315.11H368.596V317.108H232.176V315.11Z" fill="#CCCCCC"/>
<path d="M324.235 107.368H326.143V410.991H324.235V107.368Z" fill="#CCCCCC"/>
<path d="M276.536 107.368H278.445V410.991H276.536V107.368Z" fill="#CCCCCC"/>
<path d="M92.6299 190.475C92.6306 191.642 92.7608 192.804 93.018 193.939L104.01 242.913C104.381 244.568 105.06 246.13 106.009 247.51C106.957 248.89 108.156 250.06 109.537 250.955C110.917 251.849 112.453 252.449 114.056 252.722C115.659 252.994 117.297 252.932 118.877 252.541L162.931 238.229L165.083 237.534C166.479 238.538 168.053 239.241 169.712 239.602C171.372 239.963 173.083 239.974 174.746 239.634C181.14 238.45 185.567 233.002 184.633 227.458C183.7 221.914 177.759 218.387 171.365 219.565C169.691 219.842 168.086 220.464 166.644 221.395C165.202 222.327 163.951 223.55 162.964 224.992L162.932 224.999L162.82 225.02L124.476 229.985L121.253 189.269C120.955 185.405 119.242 181.812 116.471 179.241C113.7 176.67 110.087 175.322 106.387 175.477C102.688 175.633 99.1896 177.281 96.6249 180.077C94.0601 182.872 92.6278 186.598 92.628 190.474L92.6299 190.475Z" fill="#ED9DA0"/>
<path d="M92.6292 190.475C92.6299 191.642 92.7601 192.804 93.0173 193.939L102.037 244.977C102.407 246.632 103.086 248.194 104.035 249.574C104.983 250.954 106.182 252.124 107.563 253.019C108.944 253.913 110.479 254.513 112.082 254.785C113.685 255.058 115.323 254.996 116.903 254.605L160.958 241.78L158.984 221.808L125.435 226.629L121.251 189.267C120.954 185.403 119.241 181.81 116.47 179.239C113.699 176.668 110.085 175.319 106.386 175.475C102.687 175.631 99.1883 177.279 96.6235 180.074C94.0587 182.87 92.6265 186.596 92.6267 190.472L92.6292 190.475Z" fill="#6C63FF"/>
<path d="M35.413 459.42L46.0537 467.633L38.209 478.773L27.5683 470.561L35.413 459.42Z" fill="#ED9DA0"/>
<path d="M22.2504 482.097L44.8695 499.555C46.8162 501.053 49.0584 502.077 51.4319 502.551L57.0793 503.671C57.7014 503.795 58.3447 503.716 58.9232 503.447C59.5017 503.177 59.9879 502.729 60.3168 502.163C60.6458 501.596 60.8018 500.938 60.764 500.277C60.7262 499.615 60.4965 498.981 60.1055 498.46L53.2575 489.328L44.2432 469.87L44.1913 469.92C42.8882 471.167 40.9095 473.042 40.7614 473.134C37.9777 473.779 35.8396 473.416 34.4071 472.057C31.9072 469.685 32.4115 465.034 32.4171 464.99L32.4215 464.954L32.3922 464.936C32.1094 464.736 31.7866 464.607 31.4486 464.558C31.1106 464.51 30.7664 464.543 30.4428 464.656C29.1416 465.154 28.4628 466.941 28.3653 467.215C27.0954 467.402 23.7916 471.367 23.526 471.688C21.6254 472.049 20.3167 472.796 19.6367 473.908C19.3345 474.463 19.1477 475.078 19.0886 475.714C19.0296 476.349 19.0997 476.99 19.2942 477.596C19.7604 479.405 20.8035 480.993 22.2504 482.097Z" fill="#2F2E43"/>
<path d="M126.664 491.927H139.884V505.768H126.664V491.927Z" fill="#ED9DA0"/>
<path d="M128.92 518.357H157.022C159.438 518.354 161.822 517.785 164.001 516.692L169.182 514.085C169.753 513.798 170.226 513.335 170.539 512.759C170.852 512.183 170.989 511.52 170.933 510.86C170.876 510.2 170.629 509.573 170.224 509.064C169.818 508.555 169.274 508.187 168.664 508.01L157.977 504.914L139.692 494.853L139.679 494.925C139.337 496.738 138.807 499.477 138.741 499.644C136.866 501.892 134.94 502.929 133.016 502.724C129.661 502.368 127.43 498.311 127.408 498.27L127.391 498.239L127.356 498.243C127.015 498.257 126.682 498.354 126.383 498.525C126.083 498.696 125.825 498.937 125.629 499.229C124.863 500.437 125.33 502.298 125.407 502.579C124.49 503.518 124.079 508.762 124.047 509.188C122.721 510.659 122.091 512.073 122.172 513.391C122.243 514.025 122.441 514.636 122.753 515.184C123.066 515.732 123.485 516.205 123.985 516.572C125.386 517.74 127.126 518.371 128.918 518.36L128.92 518.357Z" fill="#2F2E43"/>
<path d="M72.7233 275.573H136.082L146.182 495.629H123.869L109.453 395.604L51.6049 475.624L30.4852 455.619L72.7246 395.603L72.7233 275.573Z" fill="#2F2E43"/>
<path d="M87.2868 139.4C87.2877 134.882 88.4848 130.452 90.7451 126.603C93.0054 122.754 96.2405 119.636 100.091 117.595C103.942 115.554 108.257 114.671 112.558 115.042C116.86 115.414 120.978 117.027 124.457 119.701C127.936 122.375 130.639 126.007 132.265 130.192C133.892 134.377 134.379 138.953 133.672 143.41C132.965 147.868 131.092 152.033 128.261 155.443C125.429 158.853 121.751 161.375 117.633 162.729L113.119 193.962L90.1067 173.885C90.1067 173.885 95.0779 167.256 97.7441 159.781C94.5277 157.553 91.8889 154.526 90.0639 150.969C88.239 147.413 87.2848 143.438 87.2868 139.4Z" fill="#ED9DA0"/>
<path d="M86.6362 245.407L76.2882 277.331L134.834 276.642L126.105 247.472L86.6362 245.407Z" fill="#ED9DA0"/>
<path d="M91.923 164.378L117.886 173.828L142.43 306.489L91.9224 312.945H67.2353L86.0975 181.023C86.9417 175.118 88.9242 169.455 91.9243 164.378H91.923Z" fill="#6C63FF"/>
<path d="M99.2023 320.254L98.7505 298.448L110.912 298.172L111.363 319.977C112.576 321.217 113.54 322.697 114.201 324.33C114.861 325.964 115.204 327.719 115.21 329.493C115.351 336.29 111.11 341.899 105.737 342.022C100.364 342.144 95.8936 336.733 95.753 329.936C95.6852 328.163 95.9553 326.393 96.5475 324.73C97.1397 323.068 98.0422 321.545 99.2023 320.252V320.254Z" fill="#ED9DA0"/>
<path d="M92.4024 154.409C91.188 154.625 89.763 151.545 88.4024 148.544C85.5512 142.262 83.7387 138.271 83.6012 132.625C83.4837 127.815 84.76 129.078 86.0018 118.383C86.4112 114.855 92.1674 114.862 93.3392 113.187C95.3179 110.357 92.2817 109.191 97.2054 107.494C106.428 104.311 110.598 109.256 116.455 109.682C116.603 109.692 119.506 112.666 121.128 112.819C123.969 113.089 128.066 112.623 129.905 108.094C131.623 103.856 132.761 116.239 131.226 117.771C129.881 119.25 128.672 120.858 127.616 122.575C127.553 122.844 130.322 114.105 131.226 116.692C131.876 118.554 132.47 130.593 130.817 130.953C129.434 131.254 117.946 135.873 105.208 126.765C104.757 126.442 105.183 126.958 103.608 130.953C101.621 135.991 101.17 136.267 101.207 137.655C101.282 140.66 103.438 141.546 102.808 143.52C102.492 144.337 101.931 145.024 101.21 145.477C100.488 145.931 99.6449 146.126 98.8079 146.033C97.1204 145.668 96.8298 143.481 95.6067 143.52C94.5592 143.553 93.3167 145.205 93.2061 146.871C92.973 150.382 97.9379 151.348 98.8079 156.088C99.2991 158.762 93.5217 154.213 92.4061 154.412L92.4024 154.409Z" fill="#090814"/>
</g>
<defs>
<clipPath id="clip0_231_323">
<rect width="500" height="519" fill="white" transform="matrix(-1 0 0 1 500 0)"/>
</clipPath>
</defs>
</svg>
