<svg width="27" height="34" viewBox="0 0 27 34" fill="none" xmlns="http://www.w3.org/2000/svg">
<g clip-path="url(#clip0_211_60)">
<path fill-rule="evenodd" clip-rule="evenodd" d="M16.875 26.5625C16.875 26.8443 16.7861 27.1145 16.6279 27.3138C16.4696 27.5131 16.255 27.625 16.0312 27.625H2.53125C2.30747 27.625 2.09286 27.5131 1.93463 27.3138C1.77639 27.1145 1.6875 26.8443 1.6875 26.5625V7.4375C1.6875 7.15571 1.77639 6.88546 1.93463 6.6862C2.09286 6.48694 2.30747 6.375 2.53125 6.375H16.0312C16.255 6.375 16.4696 6.48694 16.6279 6.6862C16.7861 6.88546 16.875 7.15571 16.875 7.4375V11.6875C16.875 11.9693 16.9639 12.2395 17.1221 12.4388C17.2804 12.6381 17.495 12.75 17.7188 12.75C17.9425 12.75 18.1571 12.6381 18.3154 12.4388C18.4736 12.2395 18.5625 11.9693 18.5625 11.6875V7.4375C18.5625 6.59212 18.2958 5.78137 17.8211 5.1836C17.3464 4.58583 16.7026 4.25 16.0312 4.25H2.53125C1.85992 4.25 1.21609 4.58583 0.741386 5.1836C0.266684 5.78137 0 6.59212 0 7.4375L0 26.5625C0 27.4079 0.266684 28.2186 0.741386 28.8164C1.21609 29.4142 1.85992 29.75 2.53125 29.75H16.0312C16.7026 29.75 17.3464 29.4142 17.8211 28.8164C18.2958 28.2186 18.5625 27.4079 18.5625 26.5625V22.3125C18.5625 22.0307 18.4736 21.7605 18.3154 21.5612C18.1571 21.3619 17.9425 21.25 17.7188 21.25C17.495 21.25 17.2804 21.3619 17.1221 21.5612C16.9639 21.7605 16.875 22.0307 16.875 22.3125V26.5625Z" fill="white"/>
<path fill-rule="evenodd" clip-rule="evenodd" d="M26.7536 17.7521C26.8322 17.6534 26.8945 17.5362 26.9371 17.4071C26.9796 17.278 27.0015 17.1396 27.0015 16.9999C27.0015 16.8601 26.9796 16.7217 26.9371 16.5927C26.8945 16.4636 26.8322 16.3463 26.7536 16.2476L21.6911 9.87263C21.5327 9.67312 21.3178 9.56104 21.0937 9.56104C20.8697 9.56104 20.6548 9.67312 20.4964 9.87263C20.3379 10.0721 20.2489 10.3427 20.2489 10.6249C20.2489 10.907 20.3379 11.1776 20.4964 11.3771L24.1194 15.9374H9.28125C9.05747 15.9374 8.84286 16.0493 8.68463 16.2486C8.52639 16.4478 8.4375 16.7181 8.4375 16.9999C8.4375 17.2817 8.52639 17.5519 8.68463 17.7512C8.84286 17.9504 9.05747 18.0624 9.28125 18.0624H24.1194L20.4964 22.6226C20.3379 22.8221 20.2489 23.0927 20.2489 23.3749C20.2489 23.657 20.3379 23.9276 20.4964 24.1271C20.6548 24.3266 20.8697 24.4387 21.0937 24.4387C21.3178 24.4387 21.5327 24.3266 21.6911 24.1271L26.7536 17.7521Z" fill="white"/>
</g>
<defs>
<clipPath id="clip0_211_60">
<rect width="27" height="34" fill="white"/>
</clipPath>
</defs>
</svg>
